<svg xmlns="http://www.w3.org/2000/svg" width="61" height="61" fill="none"><path fill="#231F20" fill-rule="evenodd" d="M60.1 30.366c0 16.586-13.432 30.032-30 30.032S.1 46.952.1 30.366C.1 13.779 13.532.333 30.1.333s30 13.446 30 30.033" clip-rule="evenodd"/><path fill="#fff" fill-rule="evenodd" d="M25.49 25.654h5.102v2.426c1.084-1.596 2.87-2.617 4.91-2.617h1.403c3.252 0 5.867 2.68 5.867 5.873v11.682H37.67v-9.384c-.063-1.979-1.402-3.512-3.38-3.512-1.976 0-3.634 1.533-3.698 3.512v9.384H25.49zm-5.675-8.81a3.13 3.13 0 0 1 3.124 3.128 3.13 3.13 0 0 1-3.125 3.128c-1.721 0-3.06-1.404-3.06-3.128 0-1.723 1.338-3.128 3.06-3.128Zm-2.55 8.81h5.164v17.364h-5.165V25.654Z" clip-rule="evenodd"/></svg>