<svg xmlns="http://www.w3.org/2000/svg" width="61" height="61" fill="none"><path fill="#231F20" fill-rule="evenodd" d="M60.7 30.366c0 16.586-13.431 30.032-30 30.032-16.568 0-30-13.446-30-30.032C.7 13.779 14.132.333 30.7.333c16.569 0 30 13.446 30 30.033" clip-rule="evenodd"/><path fill="#fff" fill-rule="evenodd" d="M25.849 44.364H15.87v-1.09a.91.91 0 0 1 .909-.91h.182v-1.09c0-.502.407-.909.909-.909V24.187h-1l-1.182-3.999h5.272V16.19h19.813v3.998h5.271l-1.181 4h-1v16.177c.502 0 .909.407.909.909v1.09h.181a.91.91 0 0 1 .91.91v1.09h-9.967v-1.09a.91.91 0 0 1 .909-.91h.182v-1.09c0-.492.39-.892.877-.908v-8.908c-.321-3.567-3.347-6.362-6.998-6.362-3.65 0-6.677 2.795-6.998 6.362v8.907c.493.01.889.414.889.909v1.09h.182a.91.91 0 0 1 .909.91v1.09Z" clip-rule="evenodd"/></svg>