<svg xmlns="http://www.w3.org/2000/svg" width="61" height="61" fill="none"><path fill="#231F20" fill-rule="evenodd" d="M60.9 30.366c0 16.586-13.432 30.032-30 30.032S.9 46.952.9 30.366C.9 13.779 14.331.333 30.9.333c16.568 0 30 13.446 30 30.033" clip-rule="evenodd"/><path fill="#fff" fill-rule="evenodd" d="M24.511 18.78h12.777a5.227 5.227 0 0 1 5.217 5.224v12.723c0 2.88-2.34 5.224-5.217 5.224H24.511a5.227 5.227 0 0 1-5.217-5.224V24.004a5.227 5.227 0 0 1 5.217-5.223Zm6.355 6.563h.067c2.743 0 5.017 2.277 5.017 5.023 0 2.812-2.274 5.089-5.017 5.089h-.067c-2.742 0-5.017-2.277-5.017-5.09 0-2.745 2.275-5.022 5.017-5.022m0-2.611h.067c4.147 0 7.626 3.482 7.626 7.634 0 4.218-3.479 7.634-7.626 7.634h-.067c-4.147 0-7.558-3.416-7.558-7.634 0-4.152 3.411-7.634 7.558-7.634m7.56-1.473c.869 0 1.605.736 1.605 1.607a1.63 1.63 0 0 1-1.606 1.607 1.586 1.586 0 0 1-1.605-1.607c0-.87.67-1.607 1.605-1.607ZM24.444 16.37h12.91c4.147 0 7.558 3.415 7.558 7.567v12.857c0 4.152-3.411 7.567-7.558 7.567h-12.91c-4.148 0-7.56-3.415-7.56-7.567V23.937c0-4.152 3.412-7.567 7.56-7.567" clip-rule="evenodd"/></svg>