<svg xmlns="http://www.w3.org/2000/svg" width="61" height="61" fill="none"><path fill="#231F20" fill-rule="evenodd" d="M60.3 30.366c0 16.586-13.432 30.032-30 30.032-16.569 0-30-13.446-30-30.032C.3 13.779 13.731.333 30.3.333c16.568 0 30 13.446 30 30.033" clip-rule="evenodd"/><path fill="#fff" fill-rule="evenodd" d="M15.74 29.996c6.553-2.75 14.48-6.665 21.349-9.31 6.342-2.328 6.236-1.693 5.285 4.655-.74 5.08-1.585 10.157-2.43 15.237-.319 2.433-1.587 3.702-4.23 2.221l-8.243-5.819c-1.163-.952-.845-1.693.106-2.645l7.61-7.195c2.008-2.01 1.057-2.751-1.269-1.164l-10.463 7.09c-1.48 1.057-3.065 1.057-4.756.527l-3.594-1.269c-2.325-.846-.529-1.799.634-2.328Z" clip-rule="evenodd"/></svg>