<svg xmlns="http://www.w3.org/2000/svg" width="61" height="61" fill="none"><path fill="#231F20" d="M30.5.366c-16.569 0-30 13.431-30 30 0 16.567 13.431 30 30 30 16.568 0 30-13.433 30-30 0-16.569-13.432-30-30-30"/><path fill="#fff" d="m30.5 16.63 15.257 9.515H15.241l15.258-9.515Zm15.446 24.71a2.76 2.76 0 0 1-2.763 2.762H17.815a2.76 2.76 0 0 1-2.763-2.762V26.75q.002-.241.044-.472l14.578 9.09.055.03.059.03q.155.08.317.124l.034.007c.119.028.24.046.36.046h.002q.18-.001.36-.046l.034-.007a1.6 1.6 0 0 0 .375-.155q.029-.013.056-.029l14.578-9.09q.042.23.043.472z"/></svg>